# xmcd
#
# Track frame offsets:
#	150
#	16525
#	30560
#	51082
#	65416
#	81001
#	93876
#	113120
#	129783
#
# Disc length: 1966 seconds
# Revision: 0
# Processed by: cddbd v1.5.2PL0 Copyright (c) Steve Scherf et al.
# Submitted via: dBpowerAMP V12.0
#
DISCID=5c07ac09
DTITLE=Lindsay Lawler - 2 Peaches 6 Cookies
DYEAR=2015
DGENRE=Country
TTITLE0=This Is Gonna Hurt
TTITLE1=Drink About You
TTITLE2=Let's Be Lonely Together
TTITLE3=Goodbye Go
TTITLE4=Think About Us
TTITLE5=I Don't Wanna Wake Up
TTITLE6=Hate That I Love You
TTITLE7=Train Wreck
TTITLE8=One Mile At A Time
EXTD=
EXTT0=
EXTT1=
EXTT2=
EXTT3=
EXTT4=
EXTT5=
EXTT6=
EXTT7=
EXTT8=
PLAYORDER=
